<?xml version="1.0" encoding="UTF-8" standalone="no"?>
<!DOCTYPE svg PUBLIC "-//W3C//DTD SVG 1.1//EN" "http://www.w3.org/Graphics/SVG/1.1/DTD/svg11.dtd">
<svg width="100%" height="100%" viewBox="0 0 351 351" version="1.1" xmlns="http://www.w3.org/2000/svg" xmlns:xlink="http://www.w3.org/1999/xlink" xml:space="preserve" xmlns:serif="http://www.serif.com/" style="fill-rule:evenodd;clip-rule:evenodd;stroke-linecap:round;stroke-linejoin:round;stroke-miterlimit:10;">
    <g id="Camada-1" serif:id="Camada 1">
        <g transform="matrix(-4.08323e-05,1,1,4.08323e-05,285.232,175.048)">
            <path d="M-110.212,-110.207L110.203,-110.207" style="fill:none;fill-rule:nonzero;stroke:rgb(30,30,28);stroke-width:1px;"/>
        </g>
        <g transform="matrix(0.500489,0.865743,0.865743,-0.500489,230.02,79.5416)">
            <path d="M-55.05,-95.411L165.365,-95.411" style="fill:none;fill-rule:nonzero;stroke:rgb(30,30,28);stroke-width:1px;"/>
        </g>
        <g transform="matrix(0.866611,0.498984,0.498984,-0.866611,119.699,79.7393)">
            <path d="M-14.7,-54.992L205.713,-54.992" style="fill:none;fill-rule:nonzero;stroke:rgb(30,30,28);stroke-width:1px;"/>
        </g>
        <g transform="matrix(0.999998,-0.00177847,-0.00177847,-0.999998,64.8252,175.448)">
            <path d="M-0,0.196L220.414,0.196" style="fill:none;fill-rule:nonzero;stroke:rgb(30,30,28);stroke-width:1px;"/>
        </g>
        <g transform="matrix(0.864831,-0.502064,-0.502064,-0.864831,120.39,270.761)">
            <path d="M-14.897,55.331L205.518,55.331" style="fill:none;fill-rule:nonzero;stroke:rgb(30,30,28);stroke-width:1px;"/>
        </g>
        <g transform="matrix(0.497411,-0.867515,-0.867515,-0.497411,230.717,270.165)">
            <path d="M-55.389,95.606L165.025,95.606" style="fill:none;fill-rule:nonzero;stroke:rgb(30,30,28);stroke-width:1px;"/>
        </g>
    </g>
</svg>
